<svg id="svg" version="1.1" xmlns="http://www.w3.org/2000/svg" xmlns:xlink="http://www.w3.org/1999/xlink" width="400" height="74.83870967741935" viewBox="0, 0, 400,74.83870967741935"><g id="svgg"><path id="path0" d="M0.000 37.417 L 0.000 74.833 200.000 74.833 L 400.000 74.833 400.000 37.417 L 400.000 0.000 200.000 0.000 L 0.000 0.000 0.000 37.417 M30.949 14.935 C 31.756 15.534,31.846 15.888,31.796 18.279 C 31.743 20.795,31.531 21.244,30.304 21.441 C 29.409 21.584,29.313 21.779,29.368 23.342 L 29.417 24.717 30.300 25.004 C 31.735 25.471,31.895 25.882,31.806 28.884 C 31.742 31.075,31.496 31.563,30.348 31.769 C 29.270 31.963,29.333 31.364,29.333 41.434 C 29.333 53.166,29.543 52.500,25.844 52.500 C 22.093 52.500,22.333 53.251,22.333 41.539 C 22.333 30.789,22.553 31.833,20.292 31.833 C 17.534 31.833,17.165 31.416,17.169 28.297 C 17.173 25.377,17.537 24.966,20.213 24.862 C 22.470 24.775,22.333 24.986,22.334 21.605 C 22.334 18.164,22.468 17.734,23.667 17.331 C 24.714 16.979,24.762 16.934,24.998 16.091 C 25.360 14.796,26.124 14.476,28.699 14.542 C 30.200 14.581,30.556 14.643,30.949 14.935 M66.661 14.718 C 68.414 15.321,68.652 20.365,66.971 21.280 C 66.119 21.743,62.813 21.718,62.000 21.241 C 60.310 20.251,60.643 15.262,62.434 14.722 C 63.281 14.466,65.923 14.464,66.661 14.718 M357.242 22.849 C 359.928 23.605,359.480 25.994,356.208 28.361 C 354.663 29.479,354.586 29.655,355.426 30.150 C 357.407 31.319,357.322 38.488,355.315 39.530 C 354.879 39.756,354.667 40.010,354.529 40.468 C 354.294 41.253,353.640 41.873,352.667 42.235 C 352.166 42.422,351.789 42.710,351.531 43.105 C 350.869 44.118,350.110 44.330,346.539 44.500 C 339.508 44.837,340.675 46.031,348.204 46.204 C 352.250 46.296,353.000 46.452,353.874 47.380 C 354.081 47.599,354.616 47.870,355.064 47.981 C 358.117 48.738,359.313 50.503,359.368 54.333 C 359.417 57.788,359.087 58.681,357.359 59.772 C 356.841 60.099,356.134 60.691,355.790 61.087 C 354.661 62.385,353.013 62.664,346.500 62.664 C 340.037 62.664,338.549 62.412,337.799 61.191 C 337.386 60.519,336.856 60.014,336.554 60.006 C 334.377 59.944,334.117 52.658,336.247 51.409 C 337.537 50.653,337.579 50.551,337.160 49.144 C 336.851 48.106,336.813 47.698,336.909 46.420 C 337.078 44.179,337.513 43.412,338.907 42.905 C 339.571 42.664,339.610 42.419,339.023 42.176 C 338.226 41.846,337.879 41.335,337.317 39.664 C 337.025 38.795,336.612 37.875,336.399 37.620 C 335.313 36.316,335.316 33.515,336.404 32.206 C 336.613 31.955,336.992 31.113,337.246 30.333 C 337.769 28.730,338.216 28.154,339.244 27.761 C 339.697 27.588,340.211 27.188,340.651 26.666 C 341.681 25.444,342.295 25.293,346.470 25.235 C 350.200 25.184,350.124 25.205,350.675 24.065 C 351.362 22.647,354.474 22.070,357.242 22.849 M48.517 25.024 C 49.336 25.299,49.654 25.635,49.857 26.442 C 50.105 27.426,50.182 27.461,52.195 27.526 C 55.275 27.625,55.165 27.254,55.166 37.464 C 55.166 43.624,55.212 45.357,55.375 45.404 C 57.469 46.004,57.667 46.313,57.667 48.989 C 57.667 52.152,57.318 52.500,54.156 52.500 C 51.473 52.500,51.186 52.316,50.565 50.194 C 50.441 49.771,50.086 50.114,49.875 50.861 C 49.758 51.274,49.470 51.793,49.235 52.015 L 48.807 52.417 42.778 52.459 C 35.142 52.513,35.311 52.581,35.194 49.415 C 35.123 47.518,35.112 47.495,34.034 47.187 C 31.972 46.597,32.348 43.000,34.471 43.000 C 35.006 43.000,35.127 42.656,35.199 40.917 C 35.313 38.186,35.683 37.833,38.432 37.833 C 40.132 37.833,40.105 37.848,40.500 36.684 C 40.949 35.360,41.236 35.258,44.720 35.194 C 48.272 35.129,48.167 35.178,48.167 33.575 C 48.167 31.757,48.356 31.833,43.831 31.833 C 39.642 31.833,39.914 31.761,39.500 32.983 C 38.862 34.866,36.026 34.982,35.384 33.151 C 34.582 30.861,35.392 27.794,36.862 27.559 C 37.601 27.441,37.751 27.288,37.900 26.500 C 38.185 24.993,38.698 24.850,43.850 24.841 C 46.500 24.836,48.151 24.901,48.517 25.024 M66.661 25.051 C 66.991 25.165,67.402 25.493,67.619 25.816 L 68.000 26.383 68.000 38.613 C 68.000 53.701,68.303 52.500,64.500 52.500 C 60.695 52.500,60.977 53.651,61.036 38.387 C 61.093 23.682,60.793 24.852,64.500 24.852 C 65.371 24.852,66.343 24.942,66.661 25.051 M79.386 25.012 C 80.152 25.225,80.624 25.664,80.756 26.287 C 81.011 27.499,81.428 27.556,81.807 26.430 C 82.261 25.084,82.630 24.917,85.145 24.917 C 88.303 24.917,88.667 25.278,88.667 28.417 C 88.667 31.656,88.439 31.833,84.279 31.833 C 82.093 31.833,81.329 31.887,81.194 32.051 C 81.070 32.200,80.998 35.237,80.965 41.676 C 80.912 51.911,80.946 51.566,79.948 52.175 C 79.106 52.688,75.609 52.653,74.823 52.123 C 73.815 51.443,73.822 51.544,73.872 38.333 C 73.917 26.200,73.961 25.370,74.546 25.331 C 74.567 25.329,74.883 25.220,75.250 25.088 C 76.039 24.804,78.476 24.759,79.386 25.012 M105.785 25.209 C 106.182 25.426,106.369 25.685,106.509 26.209 C 106.838 27.443,106.777 27.408,108.767 27.503 C 111.508 27.633,111.708 27.833,111.833 30.566 C 111.925 32.560,111.887 32.494,113.139 32.829 C 114.248 33.125,114.554 33.948,114.475 36.427 C 114.404 38.655,114.185 39.098,112.955 39.500 C 112.011 39.809,111.959 39.861,111.751 40.716 C 111.396 42.176,111.452 42.166,103.684 42.169 C 99.962 42.171,96.820 42.233,96.701 42.308 C 96.546 42.407,96.500 42.853,96.535 43.924 L 96.583 45.403 97.316 45.615 C 98.262 45.888,98.624 46.228,98.864 47.069 C 99.184 48.189,99.121 48.167,101.917 48.167 C 104.726 48.167,104.685 48.182,104.988 47.051 C 105.201 46.251,105.744 45.752,106.565 45.598 C 107.238 45.472,107.375 45.315,107.647 44.367 C 107.936 43.356,108.602 42.961,109.882 43.044 C 111.483 43.146,111.736 43.527,111.806 45.940 C 111.894 48.946,111.675 49.492,110.230 49.856 C 109.813 49.961,109.449 50.130,109.421 50.232 C 108.776 52.580,109.041 52.500,101.874 52.500 C 95.111 52.500,95.162 52.511,94.656 50.922 C 94.413 50.157,94.343 50.087,93.578 49.844 C 92.699 49.564,92.000 48.783,92.000 48.079 C 92.000 47.611,91.743 47.405,90.985 47.269 C 89.478 46.998,89.341 46.393,89.341 40.000 C 89.341 33.607,89.478 33.002,90.985 32.731 C 91.948 32.558,92.000 32.453,92.000 30.688 C 92.001 28.619,92.263 28.024,93.333 27.664 C 94.398 27.306,94.479 27.232,94.684 26.417 C 95.058 24.932,95.420 24.842,100.833 24.883 C 104.690 24.912,105.318 24.954,105.785 25.209 M144.167 25.537 C 144.487 25.674,145.056 26.126,145.431 26.541 C 145.832 26.985,146.321 27.341,146.620 27.406 C 146.899 27.468,147.429 27.776,147.797 28.091 C 148.251 28.480,148.492 28.595,148.547 28.451 C 148.592 28.334,148.956 28.019,149.356 27.750 C 149.756 27.481,150.441 26.936,150.879 26.537 C 152.206 25.329,152.510 25.250,155.833 25.253 C 159.182 25.255,159.738 25.412,160.517 26.572 C 160.812 27.011,161.233 27.348,161.797 27.598 C 162.733 28.011,162.838 28.157,163.409 29.844 C 163.678 30.639,163.997 31.209,164.385 31.585 C 165.327 32.500,165.391 33.141,165.454 42.333 C 165.521 52.208,165.658 51.747,162.516 52.205 C 159.200 52.688,159.167 52.592,159.167 42.652 C 159.167 34.377,159.122 33.866,158.343 33.140 C 158.170 32.979,157.928 32.704,157.806 32.531 C 156.968 31.340,151.520 30.980,150.699 32.060 C 150.318 32.562,150.167 35.651,150.166 42.936 C 150.165 51.414,150.178 51.316,149.049 51.885 C 148.275 52.276,145.820 52.369,145.160 52.032 C 143.866 51.372,143.928 51.819,143.821 42.363 C 143.744 35.626,143.675 33.751,143.480 33.096 L 143.235 32.275 141.826 31.796 C 140.106 31.211,135.852 31.462,135.412 32.175 C 134.971 32.888,134.834 35.429,134.833 42.917 C 134.832 52.614,134.875 52.490,131.632 52.233 C 128.243 51.964,128.483 52.964,128.545 39.333 C 128.608 25.433,128.519 25.843,131.548 25.591 C 133.385 25.438,133.966 25.670,135.050 26.991 C 135.419 27.440,135.544 27.401,136.032 26.682 C 136.909 25.387,137.717 25.159,141.167 25.234 C 142.847 25.270,143.761 25.362,144.167 25.537 M186.056 25.580 C 186.500 25.742,187.157 26.155,187.517 26.497 C 188.148 27.097,189.725 28.167,189.978 28.167 C 190.441 28.167,191.775 30.295,192.084 31.526 C 192.143 31.763,192.489 32.247,192.851 32.601 C 193.853 33.579,194.018 34.330,194.122 38.378 C 194.250 43.330,193.930 45.061,192.671 46.226 C 192.215 46.648,191.929 47.127,191.670 47.906 C 191.294 49.038,190.882 49.502,189.890 49.917 C 189.564 50.053,189.254 50.367,189.078 50.739 C 188.531 51.890,187.885 52.141,184.167 52.648 C 182.443 52.883,181.644 52.919,180.750 52.803 C 175.958 52.179,175.233 51.943,174.664 50.828 C 174.418 50.347,174.139 50.086,173.665 49.896 C 172.932 49.603,172.466 48.968,172.172 47.862 C 172.035 47.349,171.723 46.890,171.093 46.278 C 169.842 45.064,169.750 44.564,169.750 39.000 C 169.750 33.984,169.866 33.343,170.995 32.096 C 171.334 31.723,171.917 30.779,172.291 29.999 C 172.964 28.594,172.981 28.576,174.255 27.863 C 174.962 27.468,175.735 26.913,175.973 26.630 C 176.446 26.068,177.445 25.564,178.545 25.333 C 179.807 25.069,185.134 25.244,186.056 25.580 M212.491 25.329 C 213.663 25.498,214.237 25.829,214.750 26.633 C 214.946 26.941,215.370 27.268,215.780 27.429 C 216.725 27.800,217.107 28.253,217.582 29.563 C 217.842 30.280,218.168 30.830,218.499 31.108 C 219.704 32.122,219.832 33.256,219.833 42.934 L 219.833 50.451 219.455 51.017 C 218.432 52.549,214.806 52.796,213.888 51.397 C 213.607 50.967,213.577 50.304,213.494 42.674 C 213.389 32.941,213.393 32.961,211.227 31.867 C 209.915 31.205,205.556 31.294,204.920 31.996 C 204.455 32.510,204.340 34.584,204.337 42.517 L 204.333 50.451 203.952 51.017 C 202.894 52.590,199.243 52.775,198.333 51.302 C 197.828 50.484,197.884 28.039,198.394 26.873 C 198.799 25.946,199.512 25.439,200.363 25.473 C 201.072 25.500,204.073 26.222,204.736 26.524 C 205.094 26.687,205.194 26.654,205.533 26.260 C 206.376 25.279,209.375 24.878,212.491 25.329 M273.944 25.322 C 275.321 25.521,276.054 25.897,276.561 26.663 C 276.876 27.139,277.191 27.370,277.798 27.572 C 278.694 27.869,279.352 28.464,279.694 29.284 C 279.817 29.578,280.172 29.990,280.485 30.201 C 281.582 30.940,281.720 31.310,282.341 35.167 C 282.456 35.883,282.690 36.626,282.888 36.906 C 283.464 37.721,283.495 40.004,282.948 41.269 C 282.715 41.809,282.397 43.000,282.242 43.917 C 281.772 46.701,280.994 48.667,280.363 48.667 C 280.289 48.667,279.713 49.262,279.083 49.989 C 276.891 52.517,272.938 53.380,267.589 52.498 C 264.363 51.966,264.064 51.821,262.902 50.238 C 262.469 49.649,261.866 48.977,261.561 48.745 C 260.737 48.116,260.243 47.109,259.854 45.263 C 259.641 44.255,259.347 43.376,259.101 43.013 C 257.968 41.342,257.867 38.013,258.890 36.056 C 259.293 35.286,259.604 34.331,259.850 33.114 C 260.246 31.156,260.618 30.429,261.433 30.015 C 261.768 29.845,262.091 29.459,262.350 28.918 C 262.748 28.087,263.107 27.813,264.417 27.339 C 264.692 27.239,265.085 26.900,265.290 26.584 C 266.005 25.484,267.027 25.224,270.750 25.192 C 271.942 25.182,273.379 25.240,273.944 25.322 M324.864 25.624 C 325.346 25.838,325.793 26.198,326.031 26.561 C 326.243 26.886,326.604 27.196,326.833 27.252 C 327.574 27.433,328.440 28.121,328.752 28.777 C 328.919 29.129,329.363 29.717,329.740 30.083 C 330.859 31.174,330.889 31.385,330.993 39.000 C 331.097 46.591,331.052 46.312,332.395 47.700 C 333.934 49.292,333.945 51.347,332.418 52.071 C 330.747 52.864,327.439 52.225,326.764 50.979 L 326.444 50.389 325.842 50.991 C 324.516 52.317,320.179 53.065,316.546 52.594 C 312.952 52.127,312.414 51.886,311.741 50.436 C 311.576 50.081,311.017 49.368,310.498 48.853 C 308.644 47.013,308.652 42.465,310.512 40.971 C 310.908 40.652,311.329 40.100,311.527 39.642 C 311.979 38.590,312.239 38.388,313.727 37.929 C 314.497 37.691,315.226 37.336,315.580 37.026 C 316.532 36.189,318.312 35.845,321.750 35.831 C 324.508 35.821,324.601 35.742,324.421 33.578 C 324.282 31.913,324.239 31.867,322.544 31.568 C 319.299 30.996,315.974 31.539,315.309 32.750 C 313.984 35.159,311.652 33.985,311.531 30.848 C 311.448 28.688,311.687 28.304,313.667 27.415 C 313.987 27.271,314.400 26.916,314.583 26.626 C 315.342 25.428,316.545 25.166,321.000 25.231 C 323.704 25.271,324.179 25.319,324.864 25.624 M376.849 25.563 C 377.270 25.719,377.945 26.140,378.349 26.498 C 378.753 26.856,379.656 27.533,380.357 28.001 C 381.794 28.962,382.416 29.892,382.899 31.802 C 383.090 32.557,383.300 32.967,383.646 33.258 C 385.313 34.661,385.281 39.481,383.596 40.860 C 382.739 41.561,381.541 41.667,374.443 41.667 L 367.705 41.667 367.411 42.115 C 366.900 42.895,367.438 45.500,368.110 45.500 C 368.399 45.500,369.649 46.117,370.020 46.442 C 371.922 48.111,374.866 48.258,375.723 46.727 C 375.886 46.435,377.435 45.671,377.868 45.668 C 378.024 45.667,378.557 45.258,379.053 44.759 C 380.809 42.988,381.960 43.549,382.557 46.466 C 382.929 48.287,382.543 49.279,381.235 49.857 C 380.702 50.093,380.406 50.364,380.164 50.839 C 379.606 51.931,378.838 52.172,373.917 52.797 C 372.808 52.937,369.812 52.661,367.874 52.240 C 366.552 51.952,365.837 51.481,365.504 50.677 C 365.370 50.354,365.111 50.119,364.757 50.002 C 364.031 49.763,363.526 49.193,363.258 48.312 C 362.901 47.140,362.679 46.763,362.172 46.472 C 360.964 45.779,360.673 44.379,360.670 39.239 C 360.666 34.175,360.939 32.814,362.193 31.642 C 362.457 31.395,362.925 30.643,363.232 29.972 C 363.867 28.584,364.025 28.420,365.435 27.680 C 365.995 27.386,366.622 26.917,366.828 26.639 C 367.232 26.091,368.255 25.569,369.378 25.335 C 370.628 25.074,375.972 25.238,376.849 25.563 M237.993 25.913 C 239.622 26.738,240.471 28.199,240.759 30.667 C 240.944 32.255,241.159 32.826,241.822 33.489 C 242.597 34.263,242.907 35.150,243.258 37.583 C 243.693 40.601,243.632 40.483,245.154 41.261 L 246.480 41.939 246.735 40.928 C 246.876 40.372,247.073 39.244,247.173 38.422 C 247.383 36.703,247.813 35.575,248.516 34.901 C 249.094 34.347,249.412 33.376,249.747 31.133 C 250.020 29.309,250.429 28.352,251.172 27.803 C 251.449 27.598,251.860 27.116,252.085 26.731 C 253.440 24.420,256.611 25.338,256.395 27.979 C 256.030 32.447,255.770 33.548,254.840 34.557 C 254.125 35.333,253.954 35.847,253.488 38.611 C 253.137 40.697,252.748 41.640,252.016 42.181 C 251.494 42.567,251.489 42.585,250.983 45.577 C 250.595 47.869,250.152 49.036,249.489 49.508 C 249.233 49.690,248.932 50.119,248.820 50.461 C 248.321 51.985,247.638 52.333,245.155 52.333 C 242.749 52.333,242.296 52.043,241.681 50.108 C 241.440 49.350,241.160 48.832,240.848 48.570 C 240.163 47.994,239.702 46.764,239.405 44.719 C 239.060 42.351,238.902 41.863,238.249 41.167 C 237.400 40.259,237.184 39.671,236.753 37.086 C 236.327 34.531,236.187 34.112,235.663 33.832 C 234.461 33.188,233.628 27.970,234.499 26.540 C 235.264 25.286,236.365 25.088,237.993 25.913 M288.666 25.686 C 289.011 25.880,289.454 26.324,289.650 26.672 C 289.845 27.020,290.362 27.670,290.798 28.115 C 291.648 28.983,291.872 29.523,292.165 31.417 C 292.641 34.497,292.962 35.465,293.515 35.495 C 293.791 35.510,294.488 37.235,294.662 38.333 C 295.235 41.947,295.390 42.348,296.022 41.854 C 296.239 41.684,296.801 41.351,297.271 41.114 C 298.290 40.599,298.248 40.693,298.673 37.962 C 299.050 35.536,299.476 34.357,300.194 33.753 C 300.778 33.261,301.080 32.450,301.228 30.981 C 301.430 28.965,301.752 28.219,302.960 26.967 C 305.487 24.349,307.841 25.023,307.828 28.359 C 307.816 31.134,307.207 33.220,306.171 34.030 C 305.698 34.400,305.640 34.575,305.246 36.822 C 304.772 39.523,304.449 40.396,303.609 41.235 C 303.173 41.672,302.987 42.039,302.866 42.700 C 302.777 43.186,302.588 44.237,302.447 45.035 C 302.152 46.691,301.837 47.450,301.123 48.213 C 300.489 48.892,300.226 49.643,299.986 51.464 C 299.735 53.362,299.286 54.542,298.594 55.122 C 298.116 55.522,297.991 55.804,297.647 57.245 C 297.198 59.126,296.842 59.761,295.959 60.256 C 295.621 60.446,295.172 60.860,294.962 61.176 C 294.374 62.057,293.509 62.405,291.739 62.473 C 288.976 62.578,288.275 61.933,288.373 59.377 C 288.455 57.226,288.611 57.041,291.278 55.904 C 291.844 55.663,292.457 55.305,292.639 55.108 C 293.626 54.046,293.530 50.674,292.490 49.859 C 291.812 49.328,291.387 48.436,291.160 47.065 C 290.658 44.026,290.508 43.550,289.737 42.557 C 288.912 41.496,288.556 40.507,288.402 38.853 C 288.244 37.157,287.911 36.192,287.266 35.566 C 286.489 34.811,286.067 33.584,285.748 31.142 C 285.600 30.010,285.379 28.633,285.257 28.083 C 285.005 26.947,285.081 26.705,285.877 26.111 C 286.965 25.300,287.763 25.179,288.666 25.686 M345.583 31.154 C 344.407 31.262,342.851 31.988,342.839 32.435 C 342.836 32.537,342.608 33.041,342.333 33.557 C 341.732 34.683,341.713 35.074,342.219 35.836 C 342.432 36.156,342.696 36.642,342.806 36.918 C 343.347 38.267,345.452 38.781,348.269 38.251 C 350.290 37.870,350.246 37.949,350.248 34.714 C 350.250 31.498,350.504 31.786,347.083 31.113 C 346.900 31.077,346.225 31.095,345.583 31.154 M371.485 31.339 C 368.951 31.635,366.546 33.945,367.405 35.256 L 367.674 35.667 371.893 35.667 C 378.036 35.667,379.064 35.387,377.618 34.109 C 377.188 33.728,376.729 33.153,376.598 32.830 C 376.225 31.908,375.790 31.628,374.370 31.395 C 372.934 31.160,373.004 31.161,371.485 31.339 M180.083 31.477 C 178.665 31.635,176.965 32.913,176.412 34.237 C 176.100 34.983,176.065 41.928,176.363 43.887 L 176.561 45.191 177.652 45.686 C 178.252 45.958,178.895 46.323,179.081 46.498 C 180.916 48.221,182.595 48.135,185.044 46.190 C 185.389 45.916,186.004 45.565,186.410 45.410 C 187.441 45.017,187.530 44.564,187.619 39.264 C 187.699 34.543,187.603 33.919,186.739 33.525 C 186.522 33.426,186.173 33.084,185.964 32.764 C 185.206 31.605,183.093 31.142,180.083 31.477 M268.667 31.534 C 266.675 31.874,266.745 31.822,266.351 33.259 C 266.177 33.896,265.871 34.979,265.672 35.667 C 264.894 38.347,264.969 40.818,265.909 43.479 C 266.051 43.880,266.167 44.375,266.167 44.577 C 266.167 45.193,267.001 46.094,267.784 46.326 C 268.199 46.448,268.749 46.801,269.120 47.183 C 270.001 48.092,271.901 48.174,272.503 47.330 C 272.866 46.819,273.724 46.300,274.521 46.109 C 275.385 45.902,275.605 45.274,276.257 41.167 C 276.596 39.031,276.368 36.656,275.514 33.426 C 275.124 31.952,275.065 31.886,274.000 31.740 C 273.587 31.684,272.987 31.569,272.667 31.486 C 271.947 31.300,269.894 31.324,268.667 31.534 M96.680 32.067 C 96.557 32.215,96.504 32.810,96.535 33.692 L 96.583 35.083 101.917 35.083 C 106.475 35.083,107.250 35.048,107.250 34.841 C 107.250 34.697,106.950 34.511,106.517 34.386 C 105.571 34.112,105.266 33.822,105.008 32.956 C 104.893 32.568,104.722 32.156,104.629 32.042 C 104.367 31.721,96.948 31.745,96.680 32.067 M317.250 42.143 L 315.917 42.417 315.769 43.786 C 315.589 45.462,315.779 46.046,316.649 46.493 C 316.979 46.663,317.487 47.071,317.777 47.401 C 318.595 48.330,321.327 48.269,321.878 47.310 C 322.056 47.000,322.502 46.661,323.086 46.394 C 324.306 45.835,324.472 45.543,324.514 43.874 C 324.567 41.810,324.596 41.829,321.266 41.852 C 319.500 41.864,318.128 41.963,317.250 42.143 M42.375 42.375 C 42.285 42.490,42.160 42.846,42.100 43.167 C 41.939 44.018,41.623 44.340,40.633 44.663 C 39.512 45.028,39.518 45.278,40.658 45.664 C 41.676 46.008,41.947 46.288,42.103 47.154 C 42.271 48.087,42.407 48.167,43.833 48.167 C 45.262 48.167,45.369 48.104,45.641 47.105 C 45.876 46.248,46.246 45.869,47.068 45.650 C 47.443 45.549,47.844 45.391,47.958 45.297 C 48.235 45.070,48.242 42.642,47.967 42.367 C 47.679 42.079,42.604 42.087,42.375 42.375 M341.624 52.622 C 341.287 52.994,340.944 55.251,341.163 55.659 C 342.194 57.587,350.869 57.753,352.683 55.879 C 353.245 55.299,353.056 52.986,352.417 52.616 C 351.750 52.230,341.973 52.236,341.624 52.622 " stroke="none" fill="#f8f9fc" fill-rule="evenodd"></path><path id="path1" d="M26.719 15.916 C 26.523 16.053,26.134 16.537,25.854 16.993 C 25.528 17.523,25.107 17.942,24.688 18.156 C 23.412 18.807,23.333 19.031,23.333 22.028 C 23.333 25.627,23.070 26.000,20.528 26.000 C 18.627 26.000,18.167 26.464,18.167 28.382 C 18.167 30.346,18.680 30.833,20.750 30.833 C 22.177 30.833,22.209 30.842,22.767 31.400 L 23.333 31.967 23.333 41.167 L 23.333 50.367 23.900 50.933 C 24.713 51.746,26.818 51.793,27.649 51.016 L 28.167 50.533 28.167 41.330 L 28.167 32.127 28.823 31.522 C 29.183 31.189,29.783 30.664,30.156 30.356 L 30.833 29.795 30.833 28.475 C 30.833 26.924,30.647 26.549,29.559 25.911 C 28.456 25.265,28.168 24.684,28.167 23.105 L 28.167 21.794 28.823 21.189 C 29.183 20.856,29.783 20.331,30.156 20.022 L 30.833 19.461 30.833 18.077 C 30.833 16.087,30.417 15.667,28.441 15.667 C 27.498 15.667,26.964 15.744,26.719 15.916 M62.615 16.134 C 61.891 16.889,61.934 19.441,62.679 20.069 C 63.559 20.808,65.775 20.717,66.483 19.911 C 67.281 19.002,67.264 16.988,66.450 16.199 C 65.652 15.426,63.331 15.386,62.615 16.134 M39.561 26.295 C 39.365 26.454,39.007 26.904,38.764 27.296 C 38.509 27.708,37.972 28.225,37.492 28.521 C 36.422 29.179,36.333 29.370,36.333 31.022 C 36.333 33.603,37.529 34.036,38.749 31.898 C 39.332 30.877,39.545 30.833,44.001 30.833 L 48.033 30.833 48.600 31.400 C 49.158 31.958,49.167 31.990,49.167 33.416 C 49.167 36.052,48.768 36.333,45.033 36.333 L 42.368 36.333 41.851 36.922 C 41.566 37.246,41.333 37.578,41.333 37.660 C 41.333 38.345,40.295 38.833,38.838 38.833 C 36.730 38.833,36.333 39.202,36.333 41.166 C 36.333 42.798,36.149 43.178,34.957 44.000 C 33.494 45.010,33.487 45.336,34.912 46.280 C 36.119 47.081,36.331 47.503,36.332 49.112 C 36.333 50.410,36.357 50.498,36.846 50.987 L 37.359 51.500 42.554 51.495 C 48.360 51.489,48.016 51.557,48.896 50.230 C 50.010 48.548,50.743 48.548,51.727 50.226 C 52.595 51.707,54.946 52.087,56.100 50.933 C 57.248 49.786,56.879 47.449,55.415 46.591 C 53.902 45.704,54.000 46.342,54.000 37.407 L 54.000 29.526 53.487 29.013 C 52.995 28.521,52.917 28.500,51.565 28.500 C 49.979 28.500,49.488 28.291,49.056 27.434 C 48.913 27.149,48.602 26.710,48.366 26.458 L 47.938 26.000 43.927 26.004 C 40.379 26.007,39.876 26.041,39.561 26.295 M62.615 26.467 L 62.167 26.935 62.167 38.734 L 62.167 50.533 62.684 51.016 C 63.516 51.793,65.620 51.746,66.433 50.933 L 67.000 50.367 67.000 38.716 L 67.000 27.065 66.450 26.533 C 65.652 25.759,63.331 25.720,62.615 26.467 M75.487 26.487 L 75.000 26.974 75.000 38.720 L 75.000 50.465 75.589 50.983 C 76.498 51.781,78.512 51.764,79.301 50.950 L 79.833 50.401 79.833 41.206 L 79.833 32.011 80.422 31.422 L 81.011 30.833 83.743 30.833 C 87.366 30.833,87.500 30.747,87.500 28.433 C 87.500 26.297,87.211 26.000,85.133 26.000 C 83.573 26.000,83.522 26.030,82.449 27.572 C 81.594 28.800,80.835 28.694,79.887 27.213 C 79.172 26.097,78.967 26.000,77.331 26.000 C 76.054 26.000,75.946 26.028,75.487 26.487 M96.373 26.258 C 96.171 26.399,95.808 26.851,95.568 27.261 C 95.303 27.714,94.843 28.176,94.398 28.436 C 93.188 29.145,93.000 29.502,93.000 31.083 C 93.000 32.584,92.762 33.103,91.857 33.571 C 91.611 33.698,91.205 34.007,90.955 34.257 L 90.500 34.712 90.500 40.003 L 90.500 45.295 91.175 45.856 C 91.546 46.164,92.070 46.642,92.341 46.917 C 92.926 47.512,94.189 48.773,95.000 49.573 C 95.321 49.889,95.836 50.452,96.144 50.824 L 96.705 51.500 101.859 51.500 C 107.690 51.500,107.469 51.546,108.320 50.163 C 108.624 49.669,109.103 49.190,109.560 48.922 C 110.645 48.286,110.833 47.908,110.833 46.372 C 110.833 43.976,109.670 43.424,108.519 45.273 C 108.266 45.681,107.690 46.255,107.239 46.550 C 106.788 46.845,106.184 47.445,105.897 47.885 C 105.057 49.169,105.099 49.155,101.939 49.161 L 99.127 49.167 98.522 48.499 C 97.752 47.649,96.851 46.748,96.001 45.978 L 95.333 45.373 95.333 43.836 C 95.333 42.311,95.338 42.296,95.900 41.733 L 96.467 41.167 103.054 41.167 L 109.641 41.167 110.149 40.739 C 110.429 40.504,110.817 40.028,111.011 39.682 C 111.206 39.336,111.601 38.918,111.891 38.753 C 113.173 38.021,113.333 37.738,113.333 36.208 C 113.333 34.553,113.228 34.315,112.246 33.739 C 111.005 33.012,110.833 32.678,110.833 30.995 L 110.833 29.535 110.244 29.017 C 109.686 28.527,109.582 28.500,108.267 28.500 C 106.678 28.500,106.229 28.270,105.664 27.162 C 105.074 26.005,105.052 26.000,100.667 26.000 C 97.395 26.000,96.680 26.043,96.373 26.258 M105.062 31.080 C 105.234 31.211,105.610 31.676,105.897 32.115 C 106.184 32.555,106.790 33.156,107.243 33.453 C 108.728 34.424,108.832 35.228,107.574 36.006 C 107.077 36.313,106.723 36.333,101.836 36.333 L 96.627 36.333 95.980 35.686 L 95.333 35.039 95.333 33.531 C 95.333 32.049,95.343 32.014,95.895 31.429 L 96.456 30.833 100.603 30.839 C 103.920 30.843,104.813 30.891,105.062 31.080 M48.600 41.733 C 49.162 42.296,49.167 42.311,49.167 43.836 L 49.167 45.373 48.479 45.998 C 48.100 46.342,47.528 46.886,47.207 47.207 C 46.886 47.528,46.342 48.100,45.998 48.479 L 45.373 49.167 43.875 49.167 C 42.155 49.167,41.825 49.000,41.102 47.766 C 40.835 47.312,40.355 46.837,39.843 46.522 C 38.265 45.551,38.325 44.521,40.009 43.662 C 40.410 43.457,40.818 43.052,41.092 42.583 C 41.905 41.196,41.991 41.167,45.206 41.167 L 48.033 41.167 48.600 41.733 " stroke="none" fill="#222b56" fill-rule="evenodd"></path><path id="path2" d="M26.188 15.591 C 25.911 15.824,25.634 16.180,25.573 16.382 C 25.413 16.909,24.848 17.482,24.118 17.856 C 22.971 18.445,22.835 18.877,22.834 21.929 C 22.833 25.272,22.796 25.333,20.774 25.333 C 18.413 25.333,17.667 26.052,17.667 28.326 C 17.667 30.687,18.269 31.333,20.472 31.333 C 21.793 31.333,21.933 31.366,22.366 31.781 L 22.833 32.229 22.833 41.289 C 22.833 52.384,22.727 51.998,25.800 51.999 C 28.888 52.001,28.732 52.554,28.833 41.253 L 28.917 31.923 29.486 31.587 C 29.799 31.402,30.343 30.978,30.695 30.645 L 31.333 30.039 31.333 28.478 C 31.332 26.680,31.076 26.066,30.142 25.622 C 28.990 25.076,28.814 24.723,28.868 23.068 L 28.917 21.589 29.486 21.253 C 29.799 21.068,30.343 20.644,30.695 20.311 L 31.333 19.706 31.333 18.178 C 31.333 15.607,30.898 15.167,28.352 15.167 C 26.817 15.167,26.654 15.199,26.188 15.591 M62.436 15.515 C 61.724 16.074,61.500 16.690,61.500 18.083 C 61.500 20.389,62.138 21.000,64.545 21.000 C 66.939 21.000,67.500 20.412,67.500 17.905 L 67.500 16.461 66.853 15.814 L 66.206 15.167 64.542 15.167 C 63.107 15.167,62.817 15.215,62.436 15.515 M30.321 16.179 C 30.811 16.670,30.833 16.753,30.833 18.077 L 30.833 19.461 30.156 20.022 C 29.783 20.331,29.183 20.856,28.823 21.189 L 28.167 21.794 28.167 23.105 C 28.168 24.684,28.456 25.265,29.559 25.911 C 30.647 26.549,30.833 26.924,30.833 28.475 L 30.833 29.795 30.156 30.356 C 29.783 30.664,29.183 31.189,28.823 31.522 L 28.167 32.127 28.167 41.330 L 28.167 50.533 27.649 51.016 C 26.818 51.793,24.713 51.746,23.900 50.933 L 23.333 50.367 23.333 41.167 L 23.333 31.967 22.767 31.400 C 22.209 30.842,22.177 30.833,20.750 30.833 C 18.680 30.833,18.167 30.346,18.167 28.382 C 18.167 26.464,18.627 26.000,20.528 26.000 C 23.070 26.000,23.333 25.627,23.333 22.028 C 23.333 19.031,23.412 18.807,24.688 18.156 C 25.107 17.942,25.528 17.523,25.854 16.993 C 26.790 15.471,29.178 15.037,30.321 16.179 M66.450 16.199 C 67.264 16.988,67.281 19.002,66.483 19.911 C 65.775 20.717,63.559 20.808,62.679 20.069 C 61.934 19.441,61.891 16.889,62.615 16.134 C 63.331 15.386,65.652 15.426,66.450 16.199 M353.500 23.678 C 352.802 23.856,352.155 24.127,352.035 24.290 C 351.916 24.451,351.599 24.899,351.330 25.286 C 350.554 26.397,350.047 26.580,348.382 26.347 C 345.774 25.983,343.413 26.433,341.779 27.606 C 341.311 27.943,340.533 28.399,340.051 28.620 C 336.881 30.071,336.514 38.498,339.510 41.025 C 340.580 41.927,341.137 43.695,340.375 43.771 C 340.260 43.782,339.932 43.801,339.645 43.813 C 338.073 43.875,337.392 46.423,338.254 49.013 C 338.846 50.789,338.478 51.845,337.063 52.436 C 335.318 53.165,335.334 57.592,337.086 58.833 C 337.538 59.154,338.261 59.763,338.692 60.187 C 340.123 61.592,344.285 62.153,349.735 61.675 C 352.364 61.444,352.449 61.420,354.194 60.390 C 357.577 58.393,358.424 57.192,358.406 54.417 C 358.393 52.485,358.291 52.225,356.906 50.593 C 355.331 48.736,352.080 47.833,346.967 47.833 C 342.794 47.833,340.833 46.811,340.833 44.634 C 340.833 43.842,340.839 43.833,341.375 43.830 C 341.673 43.829,342.592 43.717,343.417 43.581 C 344.242 43.446,345.554 43.333,346.333 43.331 C 348.334 43.327,349.556 43.006,350.308 42.288 C 350.643 41.968,351.297 41.583,351.763 41.433 C 352.648 41.147,353.546 40.363,353.744 39.703 C 353.807 39.494,354.224 38.907,354.669 38.397 C 356.163 36.690,356.193 32.958,354.726 31.306 C 353.163 29.547,353.383 27.401,355.233 26.357 C 356.369 25.717,357.536 24.693,357.394 24.463 C 357.275 24.271,355.783 23.595,355.167 23.455 C 354.938 23.402,354.188 23.503,353.500 23.678 M39.497 25.643 C 39.146 25.830,38.727 26.283,38.437 26.788 C 38.097 27.379,37.713 27.764,37.121 28.103 C 35.985 28.756,35.667 29.394,35.667 31.014 C 35.667 33.687,37.692 34.846,38.801 32.809 C 38.956 32.524,39.259 32.076,39.473 31.812 L 39.863 31.333 43.817 31.333 L 47.771 31.333 48.219 31.801 C 48.629 32.229,48.667 32.381,48.667 33.605 C 48.667 35.631,48.608 35.666,45.239 35.667 C 42.273 35.668,41.765 35.818,41.199 36.858 C 40.452 38.229,40.275 38.333,38.694 38.334 C 36.328 38.335,35.667 39.017,35.667 41.454 C 35.667 42.867,35.437 43.304,34.552 43.572 C 34.132 43.699,33.167 44.739,33.167 45.064 C 33.167 45.463,33.921 46.413,34.423 46.647 C 35.508 47.152,35.667 47.437,35.667 48.879 C 35.667 51.926,35.827 51.999,42.550 51.999 C 48.625 52.000,48.505 52.025,49.303 50.611 C 50.079 49.237,50.739 49.298,51.456 50.809 C 52.225 52.429,55.880 52.525,56.840 50.950 C 57.639 49.640,57.167 46.889,56.047 46.331 C 55.792 46.203,55.377 45.913,55.125 45.685 L 54.667 45.271 54.667 37.536 C 54.667 27.850,54.715 28.000,51.620 28.000 C 50.061 28.000,49.880 27.892,49.135 26.524 C 48.529 25.413,48.186 25.335,43.914 25.334 C 40.495 25.333,40.015 25.367,39.497 25.643 M62.707 25.666 C 61.431 26.444,61.501 25.680,61.501 38.750 C 61.501 50.028,61.512 50.434,61.827 50.950 C 62.739 52.447,66.261 52.447,67.173 50.950 C 67.640 50.184,67.687 27.285,67.223 26.500 C 66.551 25.362,63.983 24.888,62.707 25.666 M75.733 25.572 C 75.448 25.695,75.054 26.023,74.858 26.299 L 74.500 26.801 74.500 38.754 L 74.500 50.706 75.147 51.353 L 75.794 52.000 77.417 52.000 L 79.039 52.000 79.686 51.353 L 80.333 50.706 80.333 41.487 L 80.333 32.268 80.781 31.801 L 81.229 31.333 83.906 31.333 C 87.738 31.332,88.250 30.948,88.141 28.158 C 88.079 26.573,87.838 26.108,86.800 25.567 C 86.257 25.285,84.133 25.254,83.614 25.520 C 83.095 25.787,82.333 26.526,82.333 26.764 C 82.333 26.874,82.104 27.210,81.824 27.510 L 81.314 28.056 80.902 27.644 C 80.676 27.418,80.361 26.976,80.204 26.661 C 79.587 25.434,77.319 24.881,75.733 25.572 M96.150 25.712 C 95.838 25.920,95.459 26.337,95.307 26.640 C 94.922 27.406,94.520 27.816,93.785 28.191 C 92.813 28.687,92.501 29.342,92.501 30.886 C 92.500 32.464,92.391 32.691,91.363 33.250 C 89.977 34.004,90.000 33.889,90.000 40.000 C 90.000 46.108,89.977 45.996,91.356 46.747 C 91.932 47.059,92.274 47.402,92.587 47.978 C 92.897 48.546,93.263 48.916,93.860 49.263 C 94.393 49.572,94.850 50.007,95.113 50.455 C 95.342 50.843,95.753 51.350,96.027 51.580 L 96.526 52.000 101.888 51.999 C 107.883 51.999,107.988 51.980,108.543 50.811 C 108.846 50.174,109.521 49.515,110.236 49.159 C 111.088 48.734,111.332 48.110,111.333 46.355 L 111.333 44.794 110.686 44.147 C 109.767 43.227,108.388 43.642,108.064 44.936 C 107.957 45.361,107.372 45.904,106.516 46.370 C 106.227 46.528,105.861 46.900,105.703 47.196 C 105.546 47.493,105.216 47.945,104.971 48.201 L 104.526 48.667 101.913 48.667 L 99.300 48.667 98.817 48.149 C 98.551 47.864,98.333 47.541,98.333 47.430 C 98.333 47.160,97.541 46.434,96.885 46.103 C 95.688 45.499,95.328 43.046,96.301 42.115 L 96.768 41.667 103.378 41.667 L 109.988 41.667 110.579 41.148 C 110.904 40.863,111.215 40.450,111.270 40.231 C 111.376 39.807,111.962 39.263,112.809 38.801 C 114.392 37.939,114.484 34.346,112.944 33.516 C 111.516 32.746,111.333 32.438,111.333 30.796 L 111.333 29.294 110.686 28.647 L 110.039 28.000 108.537 28.000 C 106.895 28.000,106.588 27.818,105.817 26.389 C 105.304 25.437,104.788 25.333,100.541 25.333 C 96.842 25.333,96.697 25.346,96.150 25.712 M48.366 26.458 C 48.602 26.710,48.913 27.149,49.056 27.434 C 49.488 28.291,49.979 28.500,51.565 28.500 C 52.917 28.500,52.995 28.521,53.487 29.013 L 54.000 29.526 54.000 37.407 C 54.000 46.342,53.902 45.704,55.415 46.591 C 56.879 47.449,57.248 49.786,56.100 50.933 C 54.946 52.087,52.595 51.707,51.727 50.226 C 50.743 48.548,50.010 48.548,48.896 50.230 C 48.016 51.557,48.360 51.489,42.554 51.495 L 37.359 51.500 36.846 50.987 C 36.357 50.498,36.333 50.410,36.332 49.112 C 36.331 47.503,36.119 47.081,34.912 46.280 C 33.487 45.336,33.494 45.010,34.957 44.000 C 36.149 43.178,36.333 42.798,36.333 41.166 C 36.333 39.202,36.730 38.833,38.838 38.833 C 40.295 38.833,41.333 38.345,41.333 37.660 C 41.333 37.578,41.566 37.246,41.851 36.922 L 42.368 36.333 45.033 36.333 C 48.768 36.333,49.167 36.052,49.167 33.416 C 49.167 31.990,49.158 31.958,48.600 31.400 L 48.033 30.833 44.001 30.833 C 39.545 30.833,39.332 30.877,38.749 31.898 C 37.529 34.036,36.333 33.603,36.333 31.022 C 36.333 29.370,36.422 29.179,37.492 28.521 C 37.972 28.225,38.509 27.708,38.764 27.296 C 39.586 25.968,39.425 26.008,43.927 26.004 L 47.938 26.000 48.366 26.458 M66.450 26.533 L 67.000 27.065 67.000 38.716 L 67.000 50.367 66.433 50.933 C 65.620 51.746,63.516 51.793,62.684 51.016 L 62.167 50.533 62.167 38.734 L 62.167 26.935 62.615 26.467 C 63.331 25.720,65.652 25.759,66.450 26.533 M79.009 26.171 C 79.185 26.266,79.580 26.734,79.887 27.213 C 80.835 28.694,81.594 28.800,82.449 27.572 C 83.522 26.030,83.573 26.000,85.133 26.000 C 87.211 26.000,87.500 26.297,87.500 28.433 C 87.500 30.747,87.366 30.833,83.743 30.833 L 81.011 30.833 80.422 31.422 L 79.833 32.011 79.833 41.206 L 79.833 50.401 79.301 50.950 C 78.512 51.764,76.498 51.781,75.589 50.983 L 75.000 50.465 75.000 38.720 L 75.000 26.974 75.487 26.487 C 76.013 25.962,78.243 25.762,79.009 26.171 M104.965 26.261 C 105.170 26.405,105.485 26.810,105.664 27.162 C 106.229 28.270,106.678 28.500,108.267 28.500 C 109.582 28.500,109.686 28.527,110.244 29.017 L 110.833 29.535 110.833 30.995 C 110.833 32.678,111.005 33.012,112.246 33.739 C 114.046 34.794,113.845 37.638,111.891 38.753 C 111.601 38.918,111.206 39.336,111.011 39.682 C 110.817 40.028,110.429 40.504,110.149 40.739 L 109.641 41.167 103.054 41.167 L 96.467 41.167 95.900 41.733 C 95.338 42.296,95.333 42.311,95.333 43.836 L 95.333 45.373 96.001 45.978 C 96.851 46.748,97.752 47.649,98.522 48.499 L 99.127 49.167 101.939 49.161 C 105.099 49.155,105.057 49.169,105.897 47.885 C 106.184 47.445,106.788 46.845,107.239 46.550 C 107.690 46.255,108.266 45.681,108.519 45.273 C 109.670 43.424,110.833 43.976,110.833 46.372 C 110.833 47.908,110.645 48.286,109.560 48.922 C 109.103 49.190,108.624 49.669,108.320 50.163 C 107.469 51.546,107.690 51.500,101.859 51.500 L 96.705 51.500 96.144 50.824 C 95.836 50.452,95.321 49.889,95.000 49.573 C 94.189 48.773,92.926 47.512,92.341 46.917 C 92.070 46.642,91.546 46.164,91.175 45.856 L 90.500 45.295 90.500 40.003 L 90.500 34.712 90.955 34.257 C 91.205 34.007,91.611 33.698,91.857 33.571 C 92.762 33.103,93.000 32.584,93.000 31.083 C 93.000 29.502,93.188 29.145,94.398 28.436 C 94.843 28.176,95.303 27.714,95.568 27.261 C 96.317 25.982,96.246 26.000,100.667 26.000 C 103.960 26.000,104.653 26.042,104.965 26.261 M139.139 26.395 C 138.055 26.579,137.333 26.991,137.333 27.428 C 137.333 27.740,136.411 28.456,135.852 28.579 C 135.300 28.700,133.901 28.082,133.248 27.430 L 132.871 27.053 131.644 27.493 C 129.617 28.218,129.759 27.337,129.703 39.583 C 129.677 45.267,129.693 50.072,129.740 50.261 C 129.952 51.125,132.639 51.582,133.373 50.879 L 133.833 50.438 133.834 42.844 C 133.835 31.748,133.985 31.071,136.583 30.424 C 138.955 29.833,140.259 29.871,141.970 30.580 C 144.735 31.726,144.677 31.484,144.814 42.390 L 144.917 50.529 145.350 50.902 C 145.759 51.253,145.859 51.265,147.100 51.117 C 149.180 50.869,149.000 51.659,149.000 42.766 C 149.000 34.422,149.261 31.348,150.000 30.997 C 152.347 29.883,155.568 29.810,157.461 30.827 C 160.050 32.218,160.019 32.081,160.127 42.711 L 160.208 50.672 160.710 51.094 C 161.303 51.593,161.783 51.545,163.083 50.857 L 163.917 50.417 163.916 43.167 C 163.916 35.219,163.902 35.066,162.813 31.347 C 162.191 29.224,162.003 28.925,160.959 28.396 C 160.507 28.167,159.814 27.682,159.420 27.318 C 158.549 26.516,156.910 26.121,155.054 26.266 C 153.342 26.400,153.244 26.438,152.348 27.335 C 151.890 27.792,151.389 28.167,151.233 28.167 C 150.806 28.167,149.487 29.321,149.299 29.860 C 149.064 30.535,148.381 30.683,147.965 30.150 C 147.212 29.187,146.516 28.596,145.583 28.127 C 145.033 27.850,144.314 27.382,143.985 27.086 C 143.089 26.282,141.305 26.027,139.139 26.395 M180.417 26.267 C 179.099 26.454,178.822 26.539,178.225 26.944 C 177.872 27.184,177.117 27.627,176.548 27.929 C 174.065 29.247,173.906 29.402,172.811 31.583 C 172.259 32.683,171.629 33.886,171.411 34.256 C 170.824 35.251,170.614 37.000,170.709 40.083 C 170.799 42.994,170.853 43.206,172.009 45.167 C 172.360 45.762,172.805 46.677,172.999 47.199 C 173.236 47.840,173.543 48.301,173.944 48.616 C 174.270 48.873,174.997 49.541,175.560 50.100 C 177.944 52.469,185.919 52.470,188.083 50.101 C 188.542 49.599,189.154 49.073,189.444 48.931 C 190.095 48.612,190.587 48.003,190.843 47.198 C 190.951 46.860,191.440 45.721,191.929 44.667 C 193.488 41.312,193.582 36.338,192.127 34.200 C 191.859 33.806,191.487 33.032,191.300 32.480 C 190.599 30.403,189.104 28.824,186.895 27.826 C 186.332 27.573,185.821 27.282,185.758 27.180 C 185.351 26.520,182.306 26.000,180.417 26.267 M208.667 26.318 C 207.608 26.414,206.684 26.852,206.672 27.263 C 206.638 28.427,203.339 28.666,201.583 27.631 C 200.050 26.727,199.927 26.716,199.580 27.447 C 198.855 28.975,198.837 29.270,198.835 40.058 L 198.833 50.367 199.395 50.929 L 199.957 51.491 201.054 51.187 C 201.656 51.020,202.341 50.757,202.575 50.604 L 203.000 50.326 203.004 42.538 C 203.010 31.637,203.117 31.229,206.173 30.400 C 208.490 29.772,209.773 29.871,211.706 30.830 C 214.329 32.131,214.324 32.107,214.329 42.612 L 214.333 50.308 214.765 50.821 C 215.265 51.415,215.674 51.460,217.011 51.067 C 218.667 50.580,218.540 51.315,218.463 42.669 L 218.395 35.083 217.958 33.667 C 216.716 29.638,216.322 28.925,214.952 28.228 C 214.514 28.004,213.865 27.560,213.510 27.239 C 212.892 26.681,210.970 26.104,210.027 26.193 C 209.875 26.207,209.262 26.264,208.667 26.318 M268.301 26.484 C 267.558 26.689,266.951 26.992,266.485 27.390 C 266.101 27.720,265.435 28.105,265.006 28.248 C 264.191 28.519,263.463 29.174,262.870 30.169 C 262.678 30.491,262.293 30.924,262.013 31.130 C 259.610 32.907,259.412 44.893,261.754 46.837 C 261.907 46.963,262.431 47.598,262.919 48.246 C 265.038 51.061,266.813 51.841,271.079 51.830 C 274.463 51.822,275.765 51.335,277.833 49.302 C 281.033 46.160,281.400 45.283,281.617 40.278 C 281.803 35.999,281.130 32.473,279.917 31.369 C 279.522 31.009,279.048 30.423,278.864 30.066 C 278.415 29.193,277.748 28.616,276.774 28.257 C 276.329 28.093,275.706 27.732,275.390 27.454 C 274.089 26.312,270.638 25.840,268.301 26.484 M318.056 26.417 C 316.901 26.668,316.506 26.850,315.667 27.519 C 315.346 27.775,314.671 28.167,314.167 28.391 C 313.662 28.614,313.073 28.988,312.857 29.220 L 312.464 29.643 312.728 30.936 C 313.100 32.762,313.309 32.920,314.208 32.055 C 315.028 31.265,315.372 31.069,316.555 30.719 C 317.029 30.578,317.705 30.317,318.057 30.137 C 319.599 29.352,323.504 30.143,324.719 31.488 C 325.535 32.391,325.871 34.639,325.350 35.715 C 324.691 37.078,324.182 37.403,322.531 37.516 C 320.486 37.657,315.616 38.435,314.357 38.821 C 313.075 39.215,312.740 39.498,312.254 40.592 C 312.049 41.056,311.653 41.694,311.375 42.011 C 310.539 42.963,310.305 44.817,310.828 46.353 C 311.527 48.407,313.211 50.668,314.386 51.134 C 317.767 52.472,323.552 51.719,324.330 49.840 C 324.741 48.850,326.400 48.706,327.109 49.599 C 328.377 51.200,328.506 51.276,330.100 51.376 C 332.925 51.552,333.393 50.457,331.329 48.500 C 330.120 47.354,330.000 46.606,330.000 40.202 C 330.000 33.587,329.876 32.583,328.897 31.275 C 328.495 30.739,328.167 30.213,328.167 30.106 C 328.167 29.546,327.283 28.667,326.212 28.161 C 325.591 27.868,324.838 27.413,324.539 27.150 C 323.954 26.636,323.822 26.591,322.167 26.336 C 320.733 26.115,319.314 26.143,318.056 26.417 M370.917 26.309 C 370.013 26.434,369.724 26.568,367.038 28.109 C 364.847 29.366,364.711 29.509,363.730 31.585 C 363.298 32.501,362.768 33.519,362.552 33.847 C 361.271 35.796,361.201 41.927,362.433 44.245 C 362.990 45.294,363.415 46.146,364.304 47.998 C 364.461 48.324,364.921 48.800,365.353 49.083 C 365.776 49.359,366.451 49.942,366.853 50.377 C 368.789 52.474,377.101 52.311,379.154 50.135 C 379.657 49.602,380.176 49.167,380.310 49.167 C 380.443 49.167,380.839 48.865,381.190 48.495 L 381.829 47.824 381.509 46.984 C 381.334 46.522,381.068 45.958,380.920 45.731 L 380.649 45.318 380.154 45.735 C 379.882 45.964,379.208 46.316,378.656 46.517 C 378.011 46.753,377.303 47.195,376.671 47.760 C 374.866 49.370,370.967 49.283,369.159 47.592 C 368.734 47.195,368.168 46.756,367.901 46.617 C 366.004 45.630,365.536 42.471,367.051 40.875 L 367.565 40.333 374.038 40.333 C 381.703 40.333,381.898 40.288,383.105 38.228 L 383.537 37.491 383.194 36.204 C 381.847 31.156,380.500 29.047,377.890 27.901 C 377.355 27.666,376.729 27.296,376.500 27.081 C 375.750 26.374,373.097 26.007,370.917 26.309 M235.822 26.930 C 234.980 27.944,235.198 30.319,236.289 32.041 C 236.792 32.834,237.054 33.634,237.730 36.444 C 238.016 37.632,238.338 38.469,238.810 39.252 C 239.320 40.097,239.590 40.835,239.929 42.308 C 240.511 44.840,240.774 45.603,241.349 46.440 C 241.764 47.043,242.667 49.654,242.667 50.251 C 242.667 51.469,246.059 52.023,247.228 50.997 C 247.634 50.640,247.859 50.253,247.999 49.670 C 248.108 49.218,248.459 48.413,248.779 47.882 C 249.613 46.499,249.804 45.982,250.269 43.838 C 250.701 41.845,251.094 40.774,251.650 40.066 C 252.056 39.550,252.521 38.118,253.016 35.859 C 253.303 34.546,253.563 33.851,254.105 32.946 C 255.159 31.183,255.444 29.848,255.098 28.291 C 254.746 26.711,254.323 26.364,253.676 27.128 C 251.261 29.984,250.975 30.516,250.338 33.342 C 250.044 34.642,249.677 35.804,249.427 36.220 C 248.427 37.883,248.295 38.272,247.488 41.957 C 247.283 42.896,246.975 43.893,246.805 44.173 L 246.496 44.681 245.373 44.064 C 243.424 42.992,243.257 42.712,242.577 39.371 C 242.225 37.644,241.977 36.910,241.237 35.417 C 240.561 34.051,240.226 33.107,239.922 31.716 C 239.439 29.503,239.061 28.696,238.308 28.265 C 238.001 28.090,237.433 27.658,237.045 27.306 C 236.258 26.591,236.135 26.553,235.822 26.930 M287.214 26.992 C 286.196 27.940,286.434 31.547,287.629 33.298 C 288.308 34.292,288.628 35.147,289.162 37.397 C 289.674 39.550,289.857 40.029,290.576 41.089 C 291.017 41.739,291.277 42.555,291.825 45.012 C 292.095 46.224,292.375 46.937,292.987 47.977 C 295.192 51.725,294.622 56.084,291.784 57.173 C 290.063 57.834,289.900 57.985,289.761 59.049 C 289.699 59.526,289.608 60.079,289.560 60.277 C 289.206 61.720,292.527 61.729,293.876 60.289 C 294.265 59.874,294.853 59.423,295.183 59.286 C 295.994 58.951,296.394 58.225,296.837 56.287 C 297.102 55.130,297.402 54.338,297.873 53.558 C 298.606 52.342,298.951 51.372,299.503 48.976 C 299.706 48.092,300.050 47.080,300.266 46.726 C 301.068 45.417,301.501 44.384,301.761 43.167 C 302.172 41.237,302.621 39.977,303.239 39.018 C 303.768 38.196,304.068 37.274,304.733 34.423 C 304.890 33.752,305.281 32.804,305.662 32.173 C 306.744 30.380,306.867 29.874,306.583 28.389 C 306.179 26.278,306.117 26.266,304.252 27.958 C 302.697 29.369,302.606 29.556,301.766 33.081 C 301.504 34.183,301.188 34.937,300.267 36.667 C 300.047 37.079,299.676 38.294,299.442 39.367 C 298.784 42.384,298.536 42.838,296.964 43.921 C 296.236 44.423,295.573 44.833,295.490 44.833 C 295.176 44.833,294.690 43.500,294.195 41.281 C 293.718 39.144,293.481 38.508,292.410 36.500 C 292.190 36.087,291.788 34.763,291.517 33.557 C 290.956 31.060,290.857 30.834,289.372 28.667 C 287.919 26.547,287.795 26.451,287.214 26.992 M347.612 29.396 C 347.871 29.614,348.577 30.016,349.181 30.290 C 351.075 31.149,351.699 32.932,351.258 36.224 C 350.991 38.211,350.599 38.735,348.837 39.454 C 348.334 39.659,347.710 39.985,347.448 40.179 C 346.681 40.746,345.054 40.300,343.034 38.967 C 341.242 37.786,341.267 37.820,340.998 36.147 C 340.560 33.415,340.983 32.023,342.577 30.959 C 343.130 30.590,343.819 30.065,344.108 29.794 C 344.488 29.437,344.879 29.265,345.525 29.171 C 346.960 28.963,347.117 28.979,347.612 29.396 M373.300 29.566 C 373.547 29.694,374.220 29.953,374.795 30.141 C 378.075 31.218,379.882 34.216,378.585 36.429 L 378.153 37.167 372.844 37.167 L 367.535 37.167 367.035 36.598 C 366.037 35.461,366.027 34.241,367.001 32.331 C 367.355 31.637,369.587 30.368,371.183 29.954 C 371.696 29.821,372.259 29.629,372.433 29.527 C 372.833 29.295,372.771 29.293,373.300 29.566 M183.083 30.097 C 187.701 31.145,188.662 32.695,188.685 39.130 C 188.703 44.011,188.329 45.539,186.878 46.514 C 186.441 46.807,185.770 47.365,185.388 47.754 C 183.930 49.236,179.869 49.239,178.333 47.760 C 177.921 47.363,177.262 46.839,176.869 46.596 C 175.433 45.709,175.075 44.123,175.097 38.750 C 175.123 32.602,176.017 31.134,180.333 30.156 C 181.953 29.789,181.744 29.793,183.083 30.097 M273.672 30.518 C 275.541 31.110,275.962 31.455,276.501 32.833 C 276.698 33.337,277.045 33.994,277.273 34.293 C 277.930 35.158,278.225 37.118,278.122 39.940 L 278.036 42.298 277.257 44.020 C 274.321 50.511,267.758 50.617,264.500 44.226 L 263.750 42.755 263.692 39.885 C 263.625 36.566,263.837 34.887,264.411 34.202 C 264.619 33.953,265.020 33.291,265.302 32.731 C 265.907 31.531,266.583 30.909,267.549 30.665 C 267.935 30.568,268.512 30.386,268.833 30.260 C 269.915 29.838,271.851 29.941,273.672 30.518 M95.895 31.429 C 95.343 32.014,95.333 32.049,95.333 33.531 L 95.333 35.039 95.980 35.686 L 96.627 36.333 101.836 36.333 C 106.723 36.333,107.077 36.313,107.574 36.006 C 108.832 35.228,108.728 34.424,107.243 33.453 C 106.790 33.156,106.184 32.555,105.897 32.115 C 105.031 30.792,105.248 30.845,100.603 30.839 L 96.456 30.833 95.895 31.429 M105.027 31.812 C 105.241 32.076,105.546 32.528,105.703 32.817 C 105.861 33.107,106.229 33.472,106.521 33.630 C 106.814 33.788,107.285 34.117,107.568 34.361 L 108.083 34.806 107.679 35.236 L 107.275 35.667 101.900 35.667 L 96.524 35.667 96.179 35.228 C 95.615 34.511,95.677 32.431,96.281 31.801 L 96.729 31.333 100.683 31.333 L 104.637 31.333 105.027 31.812 M324.677 41.112 C 326.267 42.549,326.038 45.858,324.250 47.284 C 323.929 47.540,323.667 47.838,323.667 47.946 C 323.667 49.247,317.775 49.301,316.141 48.015 C 314.530 46.749,314.249 42.543,315.712 41.596 C 316.588 41.029,319.448 40.563,322.291 40.524 L 323.999 40.500 324.677 41.112 M41.955 41.499 C 41.723 41.682,41.334 42.170,41.092 42.583 C 40.818 43.052,40.410 43.457,40.009 43.662 C 38.325 44.521,38.265 45.551,39.843 46.522 C 40.355 46.837,40.835 47.312,41.102 47.766 C 41.825 49.000,42.155 49.167,43.875 49.167 L 45.373 49.167 45.998 48.479 C 46.342 48.100,46.886 47.528,47.207 47.207 C 47.528 46.886,48.100 46.342,48.479 45.998 L 49.167 45.373 49.167 43.836 C 49.167 42.311,49.162 42.296,48.600 41.733 L 48.033 41.167 45.206 41.167 C 42.633 41.167,42.340 41.197,41.955 41.499 M48.199 42.115 C 49.334 43.202,48.786 45.525,47.196 46.370 C 46.900 46.528,46.528 46.900,46.370 47.196 C 45.187 49.422,42.550 49.338,41.305 47.035 C 41.153 46.752,40.740 46.374,40.389 46.195 C 38.918 45.444,38.947 44.769,40.481 44.041 C 40.795 43.893,41.171 43.549,41.317 43.278 C 41.464 43.006,41.797 42.533,42.059 42.225 L 42.535 41.667 45.133 41.667 C 47.726 41.667,47.733 41.668,48.199 42.115 M353.048 51.999 C 354.125 52.738,354.799 55.112,354.179 55.983 C 352.604 58.195,350.982 58.903,347.333 58.972 C 342.545 59.062,342.207 58.939,340.230 56.398 L 339.543 55.516 339.870 54.135 C 340.526 51.365,340.216 51.478,347.013 51.536 L 352.442 51.583 353.048 51.999 " stroke="none" fill="#8194fc" fill-rule="evenodd"></path><path id="path3" d="" stroke="none" fill="#bccc100" fill-rule="evenodd"></path><path id="path4" d="" stroke="none" fill="#bccc100" fill-rule="evenodd"></path></g></svg>